<svg id="Layer_1" data-name="Layer 1" xmlns="http://www.w3.org/2000/svg" viewBox="0 0 190 41"><defs><style>.cls-1{fill:#0d2483;}</style></defs><title>ruby-prof-logo-blue</title><path class="cls-1" d="M63.49,16.74c0-1.37-.91-2-2.26-2H57.85v3.93h3.58C62.67,18.68,63.49,18.11,63.49,16.74Z"/><path class="cls-1" d="M110.77,14.75h-3.94v5h3.6a2.32,2.32,0,0,0,2.5-2.13,2.16,2.16,0,0,0,0-.36A2.34,2.34,0,0,0,110.77,14.75Z"/><path class="cls-1" d="M129.15,14.75h-3.91v4.94h3.53a2.28,2.28,0,0,0,2.47-2.07,2.41,2.41,0,0,0,0-.38A2.3,2.3,0,0,0,129.15,14.75Z"/><path class="cls-1" d="M61.81,21.83h-4v4.32h3.91c1.44,0,2.45-.62,2.45-2.14A2.07,2.07,0,0,0,61.81,21.83Z"/><path class="cls-1" d="M21.38,14.75H17.43v4.94H21a2.28,2.28,0,0,0,2.47-2.07,2.41,2.41,0,0,0,0-.38A2.3,2.3,0,0,0,21.38,14.75Z"/><path class="cls-1" d="M184,.44H5.87A4.93,4.93,0,0,0,.94,5.37V35.5a5,5,0,0,0,4.93,4.94H184a4.94,4.94,0,0,0,4.94-4.94V5.37A5,5,0,0,0,184,.44ZM149.62,11.22c4.79,0,8.46,2.89,9.18,7.54h-3.86a5.48,5.48,0,0,0-10.68,0h-3.83C141.14,14.11,144.79,11.22,149.62,11.22ZM24,29.44,20.46,23h-3v6.46H13.74v-18h7.68c3.41,0,5.78,2.07,5.78,5.76a5.34,5.34,0,0,1-2.88,5.14l3.82,7.06Zm24.31-7.3c0,4.8-2.92,7.56-7.63,7.56S33,26.94,33,22.14V11.48h3.69V22.09c0,2.81,1.37,4.32,4,4.32s3.94-1.51,3.94-4.32V11.48h3.69ZM68,24.21c0,3.43-2.4,5.23-5.81,5.23h-8v-18h7.52c3.24,0,5.59,1.61,5.59,5A4,4,0,0,1,65.51,20,4.22,4.22,0,0,1,68,24.21Zm13.89-1.69v6.92h-3.7V22.52l-6.81-11h4.29L80,18.85l4.34-7.37h4.32Zm8.38-.5V18.76h7.59l0,3.26Zm20.64,1,0,0h-4v6.39h-3.72v-18h7.77c3.41,0,5.79,2.09,5.79,5.79A5.46,5.46,0,0,1,110.91,23.05Zm20.84,6.36L128.26,23h-3v6.46h-3.72v-18h7.69c3.4,0,5.78,2.07,5.78,5.76a5.34,5.34,0,0,1-2.88,5.14L136,29.44Zm17.87.29,0,0c-4.88,0-8.55-3-9.21-7.68h3.81A5.49,5.49,0,0,0,155,22h3.84C158.15,26.75,154.46,29.7,149.62,29.7ZM168,29.44h-3.72v-3.7H168Zm6.36-7.54H164.31V18.64h10.08Zm1.44-7.16H164.31V11.48h11.52Z"/></svg>